<svg width="248" height="248" viewBox="0 0 248 248" fill="none" xmlns="http://www.w3.org/2000/svg">
<g id="circles">
<g id="Exclude" filter="url(#filter0_f_7_72)">
<path fill-rule="evenodd" clip-rule="evenodd" d="M124 238C186.96 238 238 186.96 238 124C238 61.0395 186.96 10 124 10C61.0395 10 10 61.0395 10 124C10 186.96 61.0395 238 124 238ZM124 200C165.974 200 200 165.974 200 124C200 82.0264 165.974 48 124 48C82.0264 48 48 82.0264 48 124C48 165.974 82.0264 200 124 200Z" fill="url(#paint0_linear_7_72)" fill-opacity="0.3"/>
</g>
</g>
<defs>
<filter id="filter0_f_7_72" x="0" y="0" width="248" height="248" filterUnits="userSpaceOnUse" color-interpolation-filters="sRGB">
<feFlood flood-opacity="0" result="BackgroundImageFix"/>
<feBlend mode="normal" in="SourceGraphic" in2="BackgroundImageFix" result="shape"/>
<feGaussianBlur stdDeviation="5" result="effect1_foregroundBlur_7_72"/>
</filter>
<linearGradient id="paint0_linear_7_72" x1="43.5" y1="41.5" x2="205.5" y2="196" gradientUnits="userSpaceOnUse">
<stop stop-color="#BF6464"/>
<stop offset="0.514605" stop-color="#6EC56C"/>
<stop offset="0.9999" stop-color="#2507E1" stop-opacity="0"/>
<stop offset="1" stop-color="#5E62D0" stop-opacity="0"/>
</linearGradient>
</defs>
</svg>
