<svg width="84" height="84" viewBox="0 0 84 84" fill="none" xmlns="http://www.w3.org/2000/svg">
<path d="M66.4894 12.6174V12.6174C66.7721 8.73889 66.9134 6.79965 66.1833 5.33025C65.6673 4.29176 64.8615 3.42504 63.8632 2.83494C62.4508 2 60.5064 2 56.6176 2H27.3824C23.4936 2 21.5492 2 20.1368 2.83494C19.1385 3.42504 18.3327 4.29176 17.8167 5.33025C17.0866 6.79965 17.2279 8.73889 17.5106 12.6174V12.6174M66.4894 12.6174L63.7825 49.7628C63.4764 53.9625 63.3234 56.0624 62.1696 57.5129C61.7958 57.9828 61.3537 58.3938 60.858 58.7324C59.3274 59.7778 57.222 59.7778 53.011 59.7778H42M66.4894 12.6174H69.7724C74.8055 12.6174 77.322 12.6174 78.9696 13.9438C79.4989 14.37 79.9519 14.8829 80.3094 15.4607C81.4222 17.2595 81.1113 19.7568 80.4897 24.7514L78.9677 36.9785C78.4715 40.9651 78.2234 42.9584 77.0689 44.3218C76.6942 44.7642 76.2574 45.1501 75.772 45.4672C74.2765 46.4444 72.2678 46.4444 68.2504 46.4444H64.0243M17.5106 12.6174L20.2175 49.7627C20.5236 53.9625 20.6766 56.0624 21.8304 57.5129C22.2042 57.9828 22.6463 58.3938 23.142 58.7324C24.6726 59.7778 26.778 59.7778 30.989 59.7778H42M17.5106 12.6174H14.2276C9.19452 12.6174 6.67796 12.6174 5.0304 13.9438C4.50114 14.37 4.04811 14.8829 3.69063 15.4607C2.57782 17.2595 2.88866 19.7568 3.51034 24.7514L5.03228 36.9785C5.5285 40.9651 5.77661 42.9584 6.93108 44.3218C7.30576 44.7642 7.74259 45.1501 8.22795 45.4672C9.72349 46.4444 11.7322 46.4444 15.7496 46.4444H19.9757M42 59.7778V68.6667M42 68.6667L60.431 80.3397C61.3673 80.9326 61.8355 81.2291 61.8285 81.5123C61.8264 81.5986 61.8019 81.683 61.7575 81.7571C61.6119 82 61.0578 82 59.9495 82H24.0505C22.9422 82 22.3881 82 22.2425 81.7571C22.1981 81.683 22.1736 81.5986 22.1715 81.5123C22.1645 81.2291 22.6327 80.9326 23.569 80.3397L42 68.6667Z" stroke="#5E62D0" stroke-width="4" stroke-linejoin="round"/>
<path d="M41.1847 15.966C41.4951 15.3022 41.6502 14.9703 41.8876 14.9155C41.9616 14.8985 42.0384 14.8985 42.1124 14.9155C42.3498 14.9703 42.5049 15.3022 42.8153 15.966L46.3503 23.5266C46.4387 23.7157 46.4829 23.8102 46.5562 23.8773C46.5804 23.8994 46.6067 23.9191 46.6347 23.9361C46.7197 23.9876 46.8228 24.0034 47.0291 24.035L55.0109 25.2593C55.6766 25.3614 56.0094 25.4124 56.1304 25.6129C56.1682 25.6757 56.1918 25.746 56.1995 25.8189C56.2239 26.0517 55.9893 26.2932 55.5199 26.7761L49.684 32.7808C49.5467 32.9221 49.478 32.9927 49.4414 33.0797C49.4294 33.1083 49.42 33.138 49.4135 33.1684C49.3936 33.2607 49.4094 33.3579 49.441 33.5524L50.8102 41.9789C50.9241 42.6796 50.981 43.03 50.8201 43.2082C50.7699 43.2638 50.7078 43.3075 50.6385 43.3359C50.4163 43.4269 50.1059 43.2546 49.4852 42.9102L42.4367 38.9987C42.2474 38.8937 42.1528 38.8411 42.0506 38.8307C42.0169 38.8273 41.9831 38.8273 41.9494 38.8307C41.8472 38.8411 41.7526 38.8937 41.5633 38.9987L34.5148 42.9102C33.8941 43.2546 33.5837 43.4269 33.3615 43.3359C33.2921 43.3075 33.2301 43.2638 33.1799 43.2082C33.019 43.03 33.0759 42.6796 33.1898 41.9789L34.559 33.5524C34.5906 33.3579 34.6064 33.2607 34.5865 33.1684C34.58 33.138 34.5706 33.1083 34.5586 33.0797C34.522 32.9927 34.4533 32.9221 34.316 32.7808L28.4801 26.7761C28.0107 26.2932 27.7761 26.0517 27.8005 25.8189C27.8082 25.746 27.8318 25.6757 27.8696 25.6129C27.9906 25.4124 28.3234 25.3614 28.9891 25.2593L36.9708 24.035C37.1772 24.0034 37.2803 23.9876 37.3653 23.9361C37.3933 23.9191 37.4196 23.8994 37.4437 23.8773C37.5171 23.8102 37.5613 23.7157 37.6497 23.5266L41.1847 15.966Z" stroke="#5E62D0" stroke-width="4" stroke-linejoin="round"/>
</svg>
