<svg width="84" height="84" viewBox="0 0 84 84" fill="none" xmlns="http://www.w3.org/2000/svg">
<path d="M69.3684 28.8595V61.3367C69.3684 61.9867 69.3684 62.3118 69.2467 62.5952C69.2067 62.6884 69.1572 62.7774 69.0992 62.8607C68.9229 63.1138 68.647 63.2855 68.0951 63.629L43.4268 78.9827C42.8118 79.3655 42.5043 79.5569 42.1667 79.5946C42.0559 79.607 41.9441 79.607 41.8334 79.5946C41.4958 79.5569 41.1883 79.3655 40.5733 78.9827L15.9049 63.629C15.353 63.2855 15.0771 63.1138 14.9008 62.8607C14.8428 62.7774 14.7933 62.6884 14.7533 62.5952C14.6316 62.3118 14.6316 61.9867 14.6316 61.3367V28.8595M82 22.163L43.2153 2.61261C42.6865 2.34604 42.4221 2.21276 42.1399 2.18633C42.0468 2.17761 41.9532 2.17761 41.8601 2.18633C41.5779 2.21276 41.3135 2.34604 40.7847 2.61262L2 22.163L40.7354 42.6984C41.2846 42.9895 41.5592 43.1351 41.854 43.1639C41.9511 43.1734 42.0489 43.1734 42.146 43.1639C42.4409 43.1351 42.7155 42.9895 43.2647 42.6984L82 22.163ZM82 22.163V72.5107C82 73.0674 82 73.3457 81.9074 73.5969C81.8768 73.6798 81.8389 73.7599 81.7943 73.8362C81.6589 74.0672 81.4438 74.2439 81.0136 74.5972L72 82" stroke="#6EC56C" stroke-width="4" stroke-linecap="round" stroke-linejoin="round"/>
</svg>
