<svg width="84" height="84" viewBox="0 0 84 84" fill="none" xmlns="http://www.w3.org/2000/svg">
<path d="M10.8889 62.6061V62.6061C7.42229 62.6061 4.24065 60.4902 3.40128 57.1268C2.48765 53.4658 2 49.6132 2 45.6364C2 21.5367 19.9086 2 42 2C64.0914 2 82 21.5367 82 45.6364C82 49.6132 81.5124 53.4658 80.5987 57.1268C79.7594 60.4902 76.5777 62.6061 73.1111 62.6061V62.6061M64.2222 82V82C69.1314 82 73.1111 78.0203 73.1111 73.1111V52.101C73.1111 47.1918 69.1314 43.2121 64.2222 43.2121V43.2121C59.313 43.2121 55.3333 47.1918 55.3333 52.101V73.1111C55.3333 78.0203 59.313 82 64.2222 82ZM19.7778 82V82C24.687 82 28.6667 78.0203 28.6667 73.1111V52.101C28.6667 47.1918 24.687 43.2121 19.7778 43.2121V43.2121C14.8686 43.2121 10.8889 47.1918 10.8889 52.101V73.1111C10.8889 78.0203 14.8686 82 19.7778 82Z" stroke="#BF6464" stroke-width="4" stroke-linecap="round" stroke-linejoin="round"/>
</svg>
