<svg width="22" height="20" viewBox="0 0 22 20" fill="none" xmlns="http://www.w3.org/2000/svg">
<path id="Vector" d="M18.4148 16C19.9951 14.4077 20.956 12.3051 20.956 10C20.956 5.02944 16.4878 1 10.976 1C5.46417 1 0.995972 5.02944 0.995972 10C0.995972 12.3051 1.95689 14.4077 3.53719 16M18.4148 16C16.5873 17.8412 13.9317 19 10.976 19C8.02023 19 5.3646 17.8412 3.53719 16M18.4148 16L18.0747 15.5471C16.3981 13.314 13.7684 12 10.976 12V12C8.18353 12 5.55387 13.314 3.87725 15.5471L3.53719 16M10.976 9.5C9.44492 9.5 8.20375 8.38071 8.20375 7C8.20375 5.61929 9.44492 4.5 10.976 4.5C12.507 4.5 13.7482 5.61929 13.7482 7C13.7482 8.38071 12.507 9.5 10.976 9.5Z" stroke="black" stroke-width="1.5" stroke-linejoin="round"/>
</svg>
