<svg width="22" height="20" viewBox="0 0 22 20" fill="none" xmlns="http://www.w3.org/2000/svg">
<path id="Vector" d="M17.7715 7.0434V13.1092C17.7715 13.7919 17.7715 14.1333 17.639 14.4272C17.5955 14.5238 17.5419 14.6155 17.479 14.7008C17.2878 14.9603 16.9903 15.1276 16.3952 15.4624L12.2818 17.7763C11.7084 18.0988 11.4217 18.2601 11.1115 18.292C11.0095 18.3025 10.9066 18.3025 10.8046 18.292C10.4944 18.2601 10.2077 18.0988 9.63431 17.7763L5.5209 15.4624C4.92583 15.1276 4.62829 14.9603 4.43707 14.7008C4.37423 14.6155 4.3206 14.5238 4.27707 14.4272C4.14465 14.1333 4.14465 13.7919 4.14465 13.1092V7.0434M20.9161 5.53666L12.0774 1.50996C11.5886 1.28727 11.3442 1.17593 11.0861 1.15381C11.0009 1.1465 10.9152 1.1465 10.83 1.15381C10.5719 1.17593 10.3275 1.28727 9.83868 1.50996L1 5.53666L9.79138 9.74898C10.3 9.99267 10.5543 10.1145 10.8242 10.1387C10.9133 10.1467 11.0029 10.1467 11.0919 10.1387C11.3618 10.1145 11.6161 9.99267 12.1247 9.74898L20.9161 5.53666ZM20.9161 5.53666V15.7937C20.9161 16.3848 20.9161 16.6804 20.813 16.9439C20.779 17.0308 20.737 17.1143 20.6875 17.1934C20.5373 17.4332 20.3 17.6094 19.8254 17.9617L18.4266 19" stroke="black" stroke-width="1.5" stroke-linecap="round" stroke-linejoin="round"/>
</svg>
